<?xml version="1.0" encoding="utf-8"?>
<!-- Generator: Adobe Illustrator 24.0.2, SVG Export Plug-In . SVG Version: 6.00 Build 0)  -->
<svg version="1.1" id="Capa_1" xmlns="http://www.w3.org/2000/svg" xmlns:xlink="http://www.w3.org/1999/xlink" x="0px" y="0px"
	 viewBox="0 0 216 341" style="enable-background:new 0 0 216 341;" xml:space="preserve">
<g>
	<path d="M216,38v251c0,9.9-8.1,18-18,18s-18-8.1-18-18v-32c0-2.8-2.2-5-5-5s-5,2.2-5,5v28c0,7.2-5.8,13-13,13s-13-5.8-13-13V179H71
		v71c0,19.9-15.9,36-35.5,36S0,269.9,0,250V36C0,16.1,15.9,0,35.5,0S71,16.1,71,36v70h73V38c0-19.9,16.1-36,36-36S216,18.1,216,38z"
		/>
	<path d="M169.9,283.5"/>
	<circle cx="196.5" cy="327.5" r="13.5"/>
</g>
</svg>
